<?xml version="1.0" encoding="UTF-8" standalone="no"?>
<!DOCTYPE svg PUBLIC "-//W3C//DTD SVG 1.1//EN" "http://www.w3.org/Graphics/SVG/1.1/DTD/svg11.dtd">
<svg width="100%" height="100%" viewBox="0 0 400 400" version="1.1" xmlns="http://www.w3.org/2000/svg" xmlns:xlink="http://www.w3.org/1999/xlink" xml:space="preserve" xmlns:serif="http://www.serif.com/" style="fill-rule:evenodd;clip-rule:evenodd;stroke-linejoin:round;stroke-miterlimit:2;">
    <rect id="Logo" x="0" y="0" width="400" height="400" style="fill:none;"/>
    <g id="Logo1" serif:id="Logo">
        <g transform="matrix(1.32028,0,0,1.32028,-83.2011,-67.3577)">
            <path d="M355,132.25C355,93.478 323.522,62 284.75,62L144.25,62C105.478,62 74,93.478 74,132.25L74,272.75C74,311.522 105.478,343 144.25,343L284.75,343C323.522,343 355,311.522 355,272.75L355,132.25Z" style="fill:white;fill-opacity:0;"/>
            <path d="M355,132.25L355,272.75C355,311.522 323.522,343 284.75,343L144.25,343C105.478,343 74,311.522 74,272.75L74,132.25C74,93.478 105.478,62 144.25,62L284.75,62C323.522,62 355,93.478 355,132.25ZM323.75,132.25C323.75,110.725 306.275,93.25 284.75,93.25L144.25,93.25C122.725,93.25 105.25,110.725 105.25,132.25L105.25,272.75C105.25,294.275 122.725,311.75 144.25,311.75L284.75,311.75C306.275,311.75 323.75,294.275 323.75,272.75L323.75,132.25Z" style="fill:white;"/>
        </g>
        <g transform="matrix(1.61094,0,0,1.61094,-57.9723,-172.349)">
            <path d="M44.988,211.15L140.15,115.988L180.125,115.988L275.288,211.15L275.288,251.125L180.125,346.288L140.15,346.288L44.988,251.125L44.988,211.15Z" style="fill:rgb(99,99,99);fill-opacity:0;"/>
            <path d="M44.988,211.15L140.15,115.988L180.125,115.988L275.288,211.15L275.288,251.125L180.125,346.288L140.15,346.288L44.988,251.125L44.988,211.15ZM76.238,224.094L76.238,238.181L153.094,315.038L167.181,315.038L244.038,238.181L244.038,224.094L167.181,147.238L153.094,147.238L76.238,224.094Z" style="fill:white;"/>
        </g>
        <g transform="matrix(1.32028,0,0,1.32028,-81.8808,-85.8416)">
            <circle cx="213.5" cy="216.5" r="54.5" style="fill:white;fill-opacity:0;"/>
            <path d="M213.5,162C243.579,162 268,186.421 268,216.5C268,246.579 243.579,271 213.5,271C183.421,271 159,246.579 159,216.5C159,186.421 183.421,162 213.5,162ZM213.5,187C197.219,187 184,200.219 184,216.5C184,232.781 197.219,246 213.5,246C229.781,246 243,232.781 243,216.5C243,200.219 229.781,187 213.5,187Z" style="fill:white;"/>
        </g>
    </g>
</svg>
